<?xml version="1.0" encoding="utf-8"?>
<!-- Generator: Adobe Illustrator 25.4.1, SVG Export Plug-In . SVG Version: 6.00 Build 0)  -->
<svg version="1.1" id="Layer_1" xmlns="http://www.w3.org/2000/svg" xmlns:xlink="http://www.w3.org/1999/xlink" x="0px" y="0px"
	 viewBox="0 0 16 16" style="enable-background:new 0 0 16 16;" xml:space="preserve">
<style type="text/css">
	.st0{fill:#352761;}
	.st1{fill:#AFA376;}
</style>
<rect class="st0" width="16" height="16"/>
<path id="ChairMark9.svg" class="st1" d="M11.7,12.1h-0.8c-0.2,0-0.4-0.2-0.4-0.4l0,0v-0.3H11c0.2,0,0.4-0.2,0.4-0.4l0,0v-1
	c0-0.2-0.2-0.4-0.4-0.4l0,0h-0.5V8.4c0-0.2,0.2-0.4,0.4-0.4h0.8c0.2,0,0.4,0.2,0.4,0.4v3.3C12.1,11.9,11.9,12.1,11.7,12.1z
	 M10.4,8.3v1.2H5.6V8.3c0-0.2-0.2-0.4-0.4-0.4l0,0H4.7V4.7c0-0.5,0.4-0.8,0.8-0.8l0,0h4.9c0.5,0,0.8,0.4,0.8,0.8v3.2h-0.5
	C10.6,7.9,10.4,8.1,10.4,8.3L10.4,8.3z M4.7,10.9V10c0-0.2,0.2-0.4,0.4-0.4h5.9c0.2,0,0.4,0.2,0.4,0.4v0.9c0,0.2-0.2,0.4-0.4,0.4H5
	C4.9,11.3,4.7,11.1,4.7,10.9L4.7,10.9z M5.5,8.4v1.2H5c-0.2,0-0.4,0.2-0.4,0.4l0,0v1c0,0.2,0.2,0.4,0.4,0.4l0,0h0.5v0.3
	c0,0.2-0.2,0.4-0.4,0.4l0,0H4.3c-0.2,0-0.4-0.2-0.4-0.4l0,0V8.4C3.9,8.2,4.1,8,4.3,8l0,0h0.8C5.3,8,5.5,8.2,5.5,8.4L5.5,8.4z"/>
</svg>
